<?xml version="1.0" standalone="no"?><!DOCTYPE svg PUBLIC "-//W3C//DTD SVG 1.1//EN" "http://www.w3.org/Graphics/SVG/1.1/DTD/svg11.dtd"><svg t="1723684850954" class="icon" viewBox="0 0 1024 1024" version="1.1" xmlns="http://www.w3.org/2000/svg" p-id="10165" xmlns:xlink="http://www.w3.org/1999/xlink" width="200" height="200"><path d="M1014.784 183.296q0 5.12-0.512 8.704t-1.536 7.68l1.024 1.024q-20.48 53.248-43.008 103.424-19.456 43.008-44.032 89.6t-48.128 79.36q-23.552 31.744-48.64 62.464t-61.44 55.296-88.576 39.424-130.048 14.848q-72.704 0-125.44-12.8t-87.552-29.184q-40.96-18.432-68.608-43.008l1.024-1.024q-15.36-18.432-15.36-44.032 0-28.672 19.968-49.152t49.664-20.48q13.312 0 25.088 4.608t20.992 12.8l1.024 1.024q11.264 11.264 17.408 24.576 8.192 9.216 23.04 19.456t37.376 19.456q39.936 16.384 80.896 18.944t80.896-9.728 76.8-40.448 69.632-74.24q31.744-46.08 54.272-91.648t36.864-83.456q17.408-44.032 28.672-84.992l1.024 0q7.168-20.48 25.6-34.304t41.984-13.824q28.672 0 49.152 20.48t20.48 49.152zM865.28 704.512q19.456 0 36.864 7.68t30.208 20.48 20.48 30.72 7.68 37.376-7.68 36.864-20.48 30.208-30.208 20.48-36.864 7.68l-769.024 0q-20.48 0-37.888-7.68t-30.208-20.48-20.48-30.208-7.68-36.864l0-576.512q0-19.456 7.68-37.376t20.48-30.72 30.208-20.48 37.888-7.68q19.456 0 37.376 7.68t30.72 20.48 20.48 30.72 7.68 37.376l0 480.256 672.768 0z" p-id="10166" fill="#1abc9c"></path></svg>