<?xml version="1.0" standalone="no"?><!DOCTYPE svg PUBLIC "-//W3C//DTD SVG 1.1//EN" "http://www.w3.org/Graphics/SVG/1.1/DTD/svg11.dtd"><svg t="1723407551451" class="icon" viewBox="0 0 1024 1024" version="1.1" xmlns="http://www.w3.org/2000/svg" p-id="17983" xmlns:xlink="http://www.w3.org/1999/xlink" width="200" height="200"><path d="M1003.186 999.616H32.88V29.311h83.96v888.022h886.346v82.283z" p-id="17984" fill="#1abc9c"></path><path d="M942.688 802.37c-127.698 0-232.27-42.733-320.083-130.546C548.7 597.92 499.599 504.91 456.362 422.796c-49.94-94.852-93.176-176.8-150.489-176.8-61.67 0-105.577 109.599-141.105 197.747-21.115 52.454-40.89 101.89-65.022 134.067l-53.627-40.22c18.937-25.138 37.204-70.72 56.476-118.816 21.618-53.627 43.907-109.097 73.066-153.674 37.874-57.816 80.44-85.97 130.212-85.97 45.918 0 86.473 22.959 124.347 70.05 30.332 37.873 57.145 88.819 85.467 142.613 84.964 160.88 181.157 343.545 427.001 343.545v67.033z" p-id="17985" fill="#1abc9c"></path></svg>