<?xml version="1.0" standalone="no"?><!DOCTYPE svg PUBLIC "-//W3C//DTD SVG 1.1//EN" "http://www.w3.org/Graphics/SVG/1.1/DTD/svg11.dtd"><svg t="1723684743082" class="icon" viewBox="0 0 1024 1024" version="1.1" xmlns="http://www.w3.org/2000/svg" p-id="5250" xmlns:xlink="http://www.w3.org/1999/xlink" width="200" height="200"><path d="M128.45511111 269.88088889m-103.99288889 0a103.99288889 103.99288889 0 1 0 207.98577778 0 103.99288889 103.99288889 0 1 0-207.98577778 0Z" fill="#1abc9c" p-id="5251"></path><path d="M128.45511111 166.00177778c-43.008 0-79.98577778 26.16888889-95.80088889 63.488 17.29422222-12.74311111 38.57066667-20.25244445 61.66755556-20.25244445 57.45777778 0 103.99288889 46.53511111 103.99288889 103.99288889 0 14.336-2.95822222 27.98933333-8.192 40.50488889 25.71377778-18.88711111 42.32533333-49.37955555 42.32533333-83.74044444 0-57.45777778-46.53511111-103.99288889-103.99288889-103.99288889z" fill="#1abc9c" p-id="5252"></path><path d="M128.45511111 396.62933333c-69.85955555 0-126.74844445-56.88888889-126.74844444-126.74844444 0-69.85955555 56.88888889-126.74844445 126.74844444-126.74844444s126.74844445 56.88888889 126.74844444 126.74844444c0 69.97333333-56.88888889 126.74844445-126.74844444 126.74844444z m0-207.872c-44.82844445 0-81.23733333 36.40888889-81.23733333 81.23733334 0 44.82844445 36.40888889 81.23733333 81.23733333 81.23733333s81.23733333-36.40888889 81.23733334-81.23733333c0-44.82844445-36.40888889-81.23733333-81.23733334-81.23733334z" fill="#1abc9c" p-id="5253"></path><path d="M128.34133333 896m-103.99288888 0a103.99288889 103.99288889 0 1 0 207.98577777 0 103.99288889 103.99288889 0 1 0-207.98577777 0Z" fill="#1abc9c" p-id="5254"></path><path d="M129.47911111 780.62933333c-41.07377778 0-76.57244445 23.89333333-93.52533333 58.48177778 14.90488889-8.192 31.97155555-12.97066667 50.28977777-12.97066666 57.45777778 0 103.99288889 46.53511111 103.9928889 103.99288888 0 16.27022222-3.75466667 31.744-10.46755556 45.51111112 31.97155555-17.74933333 53.70311111-51.88266667 53.70311111-91.02222223-0.11377778-57.45777778-46.64888889-103.99288889-103.99288889-103.99288889z" fill="#1abc9c" p-id="5255"></path><path d="M128.34133333 1022.63466667c-69.85955555 0-126.74844445-56.88888889-126.74844444-126.74844445 0-69.85955555 56.88888889-126.74844445 126.74844444-126.74844444s126.74844445 56.88888889 126.74844445 126.74844444c-0.11377778 69.97333333-56.88888889 126.74844445-126.74844445 126.74844445z m0-207.872c-44.82844445 0-81.23733333 36.40888889-81.23733333 81.23733333s36.40888889 81.23733333 81.23733333 81.23733333 81.23733333-36.40888889 81.23733334-81.23733333-36.52266667-81.23733333-81.23733334-81.23733333z" fill="#1abc9c" p-id="5256"></path><path d="M895.65866667 894.17955555m-103.99288889 0a103.99288889 103.99288889 0 1 0 207.98577777 0 103.99288889 103.99288889 0 1 0-207.98577777 0Z" fill="#1abc9c" p-id="5257"></path><path d="M895.65866667 790.18666667c-37.43288889 0-70.31466667 19.79733333-88.63288889 49.49333333 15.81511111-9.78488889 34.47466667-15.36 54.49955555-15.36 57.45777778 0 103.99288889 46.53511111 103.99288889 103.99288889 0 19.91111111-5.57511111 38.57066667-15.36 54.49955556 29.696-18.31822222 49.49333333-51.08622222 49.49333333-88.6328889 0-57.45777778-46.53511111-103.99288889-103.99288888-103.99288888z" fill="#1abc9c" p-id="5258"></path><path d="M895.65866667 1020.81422222c-69.85955555 0-126.74844445-56.88888889-126.74844445-126.74844444 0-69.85955555 56.88888889-126.74844445 126.74844445-126.74844445s126.74844445 56.88888889 126.74844444 126.74844445c0 69.97333333-56.77511111 126.74844445-126.74844444 126.74844444z m0-207.872c-44.82844445 0-81.23733333 36.40888889-81.23733334 81.23733333s36.40888889 81.23733333 81.23733334 81.23733334 81.23733333-36.40888889 81.23733333-81.23733334-36.40888889-81.23733333-81.23733333-81.23733333z" fill="#1abc9c" p-id="5259"></path><path d="M892.13155555 450.56m-103.99288888 0a103.99288889 103.99288889 0 1 0 207.98577778 0 103.99288889 103.99288889 0 1 0-207.98577778 0Z" fill="#1abc9c" p-id="5260"></path><path d="M881.89155555 385.93422222c55.18222222 15.92888889 87.04 73.50044445 71.11111112 128.68266667-2.27555555 7.85066667-5.34755555 15.24622222-9.216 22.18666666 20.36622222-13.08444445 36.18133333-33.33688889 43.34933333-58.48177777 15.92888889-55.18222222-15.92888889-112.75377778-71.11111111-128.68266667-47.33155555-13.65333333-96.36977778 7.85066667-119.46666667 48.92444444 24.46222222-15.81511111 55.18222222-21.27644445 85.33333333-12.62933333z" fill="#1abc9c" p-id="5261"></path><path d="M892.13155555 577.30844445c-69.85955555 0-126.74844445-56.88888889-126.74844444-126.74844445 0-69.85955555 56.88888889-126.74844445 126.74844444-126.74844445 69.85955555 0 126.74844445 56.88888889 126.74844445 126.74844445 0 69.85955555-56.88888889 126.74844445-126.74844445 126.74844445z m0-207.98577778c-44.82844445 0-81.23733333 36.40888889-81.23733333 81.23733333 0 44.82844445 36.40888889 81.23733333 81.23733333 81.23733333s81.23733333-36.40888889 81.23733334-81.23733333c0-44.82844445-36.40888889-81.23733333-81.23733334-81.23733333z" fill="#1abc9c" p-id="5262"></path><path d="M517.57511111 128m-103.99288889 0a103.99288889 103.99288889 0 1 0 207.98577778 0 103.99288889 103.99288889 0 1 0-207.98577778 0Z" fill="#1abc9c" p-id="5263"></path><path d="M517.57511111 24.12088889c-40.73244445 0-75.88977778 23.32444445-92.95644444 57.45777778 17.18044445-12.51555555 38.22933333-19.91111111 61.09866666-19.91111112 57.45777778 0 103.99288889 46.53511111 103.99288889 103.9928889 0 16.72533333-3.98222222 32.54044445-11.03644444 46.5351111C604.61511111 193.30844445 621.568 162.70222222 621.568 128.11377778c0-57.45777778-46.64888889-103.99288889-103.99288889-103.99288889z" fill="#1abc9c" p-id="5264"></path><path d="M517.57511111 254.74844445c-69.85955555 0-126.74844445-56.88888889-126.74844444-126.74844445 0-69.85955555 56.88888889-126.74844445 126.74844444-126.74844445 69.85955555 0 126.74844445 56.88888889 126.74844444 126.74844445 0 69.85955555-56.88888889 126.74844445-126.74844444 126.74844445z m0-207.872c-44.82844445 0-81.23733333 36.40888889-81.23733333 81.23733333 0 44.82844445 36.40888889 81.23733333 81.23733333 81.23733333s81.23733333-36.40888889 81.23733334-81.23733333c0-44.82844445-36.52266667-81.23733333-81.23733334-81.23733333z" fill="#1abc9c" p-id="5265"></path><path d="M512.56888889 519.50933333m-180.56533334 0a180.56533333 180.56533333 0 1 0 361.13066667 0 180.56533333 180.56533333 0 1 0-361.13066667 0Z" fill="#1abc9c" p-id="5266"></path><path d="M512.56888889 519.50933333m-180.56533334 0a180.56533333 180.56533333 0 1 0 361.13066667 0 180.56533333 180.56533333 0 1 0-361.13066667 0Z" fill="#1abc9c" p-id="5267"></path><path d="M512.56888889 338.83022222c-34.70222222 0-67.01511111 9.78488889-94.54933334 26.73777778 12.17422222-2.61688889 24.68977778-3.98222222 37.66044445-3.98222222 99.78311111 0 180.56533333 80.896 180.56533333 180.56533333 0 65.08088889-34.47466667 122.08355555-86.016 153.94133334 81.69244445-17.29422222 142.90488889-89.77066667 142.90488889-176.6968889 0-99.66933333-80.896-180.56533333-180.56533333-180.56533333z" fill="#1abc9c" p-id="5268"></path><path d="M512.56888889 722.83022222c-112.07111111 0-203.32088889-91.24977778-203.32088889-203.32088889S400.49777778 316.18844445 512.56888889 316.18844445c112.18488889 0 203.32088889 91.24977778 203.32088889 203.32088888S624.64 722.83022222 512.56888889 722.83022222z m0-361.24444444c-87.04 0-157.80977778 70.76977778-157.80977778 157.80977777 0 87.04 70.76977778 157.80977778 157.80977778 157.80977778S670.37866667 606.43555555 670.37866667 519.39555555c0-86.92622222-70.76977778-157.80977778-157.80977778-157.80977777z" fill="#1abc9c" p-id="5269"></path><path d="M208.66844445 324.94933333l161.45066666 106.04088889" fill="#1abc9c" p-id="5270"></path><path d="M221.22951111 305.93479111l161.49162667 106.04430222-24.98104889 38.04273778-161.49162667-106.04430222z" fill="#1abc9c" p-id="5271"></path><path d="M682.78044445 483.55555555l105.472-15.01866666" fill="#1abc9c" p-id="5272"></path><path d="M785.06211555 446.02709333l6.4261689 45.056-105.43104 15.03800889-6.4261689-45.056z" fill="#1abc9c" p-id="5273"></path><path d="M512.56888889 324.94933333V216.29155555" fill="#1abc9c" p-id="5274"></path><path d="M489.81333333 216.29155555h45.51111112v108.65777778h-45.51111112z" fill="#1abc9c" p-id="5275"></path><path d="M370.11911111 653.42577778L213.56088889 806.00177778" fill="#1abc9c" p-id="5276"></path><path d="M354.30741333 637.03950222l31.75765334 32.59960889-156.56049778 152.51569778-31.75765334-32.59960889z" fill="#1abc9c" p-id="5277"></path><path d="M656.384 655.13244445l182.15822222 182.04444444" fill="#1abc9c" p-id="5278"></path><path d="M672.42097778 638.95324445l182.14343111 182.14456888-32.18090667 32.18090667-182.14343111-182.14456889z" fill="#1abc9c" p-id="5279"></path></svg>