<?xml version="1.0" standalone="no"?><!DOCTYPE svg PUBLIC "-//W3C//DTD SVG 1.1//EN" "http://www.w3.org/Graphics/SVG/1.1/DTD/svg11.dtd"><svg t="1723405911711" class="icon" viewBox="0 0 1024 1024" version="1.1" xmlns="http://www.w3.org/2000/svg" p-id="1643" id="mx_n_1723405911713" xmlns:xlink="http://www.w3.org/1999/xlink" width="200" height="200"><path d="M981.333333 960a21.333333 21.333333 0 0 1-21.333333 21.333333H64a21.333333 21.333333 0 0 1-21.333333-21.333333V64a21.333333 21.333333 0 0 1 42.666666 0v874.666667h874.666667a21.333333 21.333333 0 0 1 21.333333 21.333333zM234.666667 725.333333a64 64 0 1 0-64-64 64 64 0 0 0 64 64z m298.666666-298.666666a64 64 0 1 0-64-64 64 64 0 0 0 64 64zM448 640a64 64 0 1 0-64-64 64 64 0 0 0 64 64z m256-42.666667a64 64 0 1 0-64-64 64 64 0 0 0 64 64zM277.333333 341.333333a64 64 0 1 0-64-64 64 64 0 0 0 64 64z m490.666667 341.333334a64 64 0 1 0 64 64 64 64 0 0 0-64-64z m106.666667-298.666667a64 64 0 1 0-64-64 64 64 0 0 0 64 64z" fill="#1abc9c" p-id="1644"></path></svg>