<?xml version="1.0" standalone="no"?><!DOCTYPE svg PUBLIC "-//W3C//DTD SVG 1.1//EN" "http://www.w3.org/Graphics/SVG/1.1/DTD/svg11.dtd"><svg t="1723427064850" class="icon" viewBox="0 0 1024 1024" version="1.1" xmlns="http://www.w3.org/2000/svg" p-id="19906" xmlns:xlink="http://www.w3.org/1999/xlink" width="200" height="200"><path d="M980.045257 215.39329v593.327145c0 23.932439-8.718031 44.458478-25.931324 61.58146-17.330364 17.126997-38.101915 25.632295-62.313315 25.632295H136.894221c-24.2114 0-44.982951-8.505298-62.313315-25.632295-17.324343-17.122314-25.931325-37.649021-25.931325-61.58146V215.39329c0-23.927087 8.606312-44.454464 25.931325-61.58146 17.330364-17.120976 38.101915-25.626274 62.313315-25.626274h755.020122c24.215414 0 44.986965 8.615678 62.311308 25.626274 17.100907 16.900216 25.819606 37.426254 25.819606 61.58146zM334.286169 389.695034V285.02448c0-5.106256-1.608206-9.30338-4.937006-12.475642-3.327462-3.288662-7.574759-4.879475-12.622815-4.879474H136.780496c-5.165125 0-9.412423 1.590813-12.622815 4.879474-3.329469 3.288662-4.937006 7.485786-4.937006 12.475642v104.670554c0 5.100235 1.608206 9.29736 4.937006 12.475641 3.328131 3.29 7.574759 4.873454 12.622815 4.873454h179.945183c5.165125 0 9.412423-1.583454 12.622815-4.873454 3.329469-3.177612 4.937675-7.375406 4.937675-12.475641z m0 209.570566V494.593708c0-5.104249-1.608206-9.296022-4.937006-12.474303-3.327462-3.29-7.574759-4.879475-12.622815-4.879475H136.780496c-5.165125 0-9.412423 1.588806-12.622815 4.879475-3.329469 3.288662-4.937006 7.486455-4.937006 12.474303v104.671892c0 5.106256 1.608206 9.298029 4.937006 12.475641 3.328131 3.288662 7.574759 4.873454 12.622815 4.873455h179.945183c5.165125 0 9.412423-1.584792 12.622815-4.873455 3.329469-3.177612 4.937675-7.485786 4.937675-12.475641z m0 209.343786v-104.671893c0-5.104249-1.608206-9.296022-4.937006-12.475641-3.327462-3.288662-7.574759-4.872116-12.622815-4.872116H136.780496c-5.165125 0-9.412423 1.583454-12.622815 4.872116-3.329469 3.29-4.937006 7.487793-4.937006 12.475641v104.671893c0 5.106256 1.608206 9.298029 4.937006 12.475641 3.328131 3.288662 7.574759 4.872116 12.622815 4.872116h179.945183c5.165125 0 9.412423-1.583454 12.622815-4.872116 3.329469-3.29 4.937675-7.369385 4.937675-12.475641z m287.87229-418.914352V285.02448c0-5.106256-1.608206-9.30338-4.937007-12.475642-3.328131-3.288662-7.574759-4.879475-12.622814-4.879474H424.535715c-5.165125 0-9.407071 1.590813-12.622815 4.879474-3.329469 3.288662-4.937006 7.485786-4.937006 12.475642v104.670554c0 5.100235 1.608206 9.29736 4.937006 12.475641 3.328131 3.29 7.574759 4.873454 12.622815 4.873454h180.062923c5.165125 0 9.407071-1.583454 12.622814-4.873454 3.329469-3.177612 4.937006-7.375406 4.937007-12.475641z m0 209.570566V494.593708c0-5.104249-1.608206-9.296022-4.937007-12.474303-3.328131-3.29-7.574759-4.879475-12.622814-4.879475H424.535715c-5.165125 0-9.407071 1.588806-12.622815 4.879475-3.329469 3.288662-4.937006 7.486455-4.937006 12.474303v104.671892c0 5.106256 1.608206 9.298029 4.937006 12.475641 3.328131 3.288662 7.574759 4.873454 12.622815 4.873455h180.062923c5.165125 0 9.407071-1.584792 12.622814-4.873455 3.329469-3.177612 4.937006-7.485786 4.937007-12.475641z m0 209.343786v-104.671893c0-5.104249-1.608206-9.296022-4.937007-12.475641-3.328131-3.288662-7.574759-4.872116-12.622814-4.872116H424.535715c-5.165125 0-9.407071 1.583454-12.622815 4.872116-3.329469 3.29-4.937006 7.487793-4.937006 12.475641v104.671893c0 5.106256 1.608206 9.298029 4.937006 12.475641 3.328131 3.288662 7.574759 4.872116 12.622815 4.872116h180.062923c5.165125 0 9.407071-1.583454 12.622814-4.872116 3.329469-3.29 4.937006-7.369385 4.937007-12.475641z m287.197966-418.914352V285.02448c0-5.106256-1.602186-9.30338-4.931655-12.475642-3.328131-3.288662-7.574759-4.879475-12.624152-4.879474h-179.949866c-5.159774 0-9.407071 1.590813-12.622815 4.879474-3.329469 3.288662-4.931655 7.485786-4.931655 12.475642v104.670554c0 5.100235 1.602186 9.29736 4.931655 12.475641 3.328131 3.29 7.575428 4.873454 12.622815 4.873454h179.949866c5.161112 0 9.408409-1.583454 12.624152-4.873454 3.329469-3.177612 4.931655-7.375406 4.931655-12.475641z m0 209.570566V494.593708c0-5.104249-1.602186-9.296022-4.931655-12.474303-3.328131-3.29-7.574759-4.879475-12.624152-4.879475h-179.949866c-5.159774 0-9.407071 1.588806-12.622815 4.879475-3.329469 3.288662-4.931655 7.486455-4.931655 12.474303v104.671892c0 5.106256 1.602186 9.298029 4.931655 12.475641 3.328131 3.172261 7.575428 4.873454 12.622815 4.873455h179.949866c5.161112 0 9.408409-1.584792 12.624152-4.873455 3.21173-3.288662 4.931655-7.485786 4.931655-12.475641z m0 209.343786v-104.671893c0-5.104249-1.602186-9.296022-4.931655-12.475641-3.328131-3.288662-7.574759-4.872116-12.624152-4.872116h-179.949866c-5.159774 0-9.407071 1.583454-12.622815 4.872116-3.329469 3.29-4.931655 7.487793-4.931655 12.475641v104.671893c0 5.106256 1.602186 9.298029 4.931655 12.475641 3.328131 3.288662 7.575428 4.872116 12.622815 4.872116h179.949866c5.161112 0 9.408409-1.583454 12.624152-4.872116 3.329469-3.29 4.931655-7.369385 4.931655-12.475641z m0 0" p-id="19907" fill="#1abc9c"></path></svg>