<svg version="1.0" xmlns="http://www.w3.org/2000/svg" width="200.000000pt" height="200.000000pt" viewBox="0 0 300.000000 458.000000" preserveAspectRatio="xMidYMid meet">
  <g transform="translate(0.000000,458.000000) scale(0.050000,-0.050000)" fill="#1bbc9c" stroke="#1bbc9c">
    <!-- Thicker path -->
    <path d="M2978 8359 c-19 -12 -32 -80 -42 -223 -17 -253 -67 -578 -116 -746 -12 -44 -28 -102 -34 -130 -6 -27 -18 -59 -25 -70 -8 -11 -36 -74 -62 -140 -72 -183 -268 -555 -377 -717 -152 -225 -287 -351 -862 -803 -775 -609 -939 -788 -1057 -1151 -133 -411 337 -1063 1167 -1619 88 -60 169 -115 180 -124 11 -10 128 -91 260 -181 342 -233 682 -582 804 -825 112 -222 130 -300 129 -570 -1 -188 5 -245 29 -269 65 -65 111 -15 95 101 -76 549 288 1127 1013 1608 1528 1013 1877 1647 1285 2331 -119 138 -391 384 -585 529 -37 28 -100 77 -141 110 -41 33 -195 156 -342 273 -457 365 -591 531 -852 1059 -231 466 -285 658 -344 1228 -35 338 -49 375 -123 329z" stroke-width="100"/>
    <!-- Thicker path -->
    <path d="M2960 5650 c-13 -16 -19 -43 -13 -59 6 -16 12 -230 14 -475 l3 -446 -327 -1 -327 -1 -5 -524 -6 -524 338 0 338 0 -8 -95 c-5 -52 -12 -117 -16 -145 -10 -66 21 -120 70 -120 45 0 44 -3 47 208 l2 157 325 -4 326 -3 -6 524 -5 525 -326 -5 -327 -5 3 486 c2 268 2 498 2 512 -3 35 -72 31 -102 -5z m-200 -1171 c-38 -33 -101 -69 -140 -79 -38 -10 -91 -34 -116 -52 -59 -40 -63 -36 -77 89 l-13 103 208 -1 208 -1 -70 -59z" stroke-width="100"/>
    <!-- Other paths remain the same -->
    <path d="M2977 4385 c-95 -21 -49 -171 49 -161 58 5 64 12 64 74 0 70 -42 103 -113 87z"/>
  </g>
</svg>
