<?xml version="1.0" standalone="no"?><!DOCTYPE svg PUBLIC "-//W3C//DTD SVG 1.1//EN" "http://www.w3.org/Graphics/SVG/1.1/DTD/svg11.dtd"><svg t="1725810581194" class="icon" viewBox="0 0 1024 1024" version="1.1" xmlns="http://www.w3.org/2000/svg" p-id="6199" xmlns:xlink="http://www.w3.org/1999/xlink" width="200" height="200"><path d="M543.051 474.541l-31.051 72.449 60.479 20.156-100.814 141.114 20.156-120.958h-80.623l71.455-114.327c-104.61 95.841-454.497 419.158-454.497 457.057 0 44.587 216.627 80.635 483.844 80.635s483.844-36.105 483.844-80.635c0-37.671-346.023-357.65-452.793-455.491zM394.666 252.449c8.815 59.793 33.772 108.542 66.55 134.037l50.796-101.58 20.156 40.323-11.341 79.377c52.82-6.448 96.23-68.791 108.519-152.158 62.629-14.257 104.426-39.488 104.426-68.333 0-30.273-45.948-56.614-113.802-70.402-19.928-65.818-60.731-111.046-107.97-111.046s-88.032 45.228-107.959 111.035c-67.865 13.788-113.802 40.129-113.802 70.402 0 28.845 41.798 54.077 104.426 68.345z" p-id="6200" fill="#1abc9c"></path></svg>